<?xml version="1.0" encoding="utf-8"?>
<!-- Generator: Adobe Illustrator 23.0.2, SVG Export Plug-In . SVG Version: 6.00 Build 0)  -->
<svg version="1.1" id="Layer_1" xmlns="http://www.w3.org/2000/svg" xmlns:xlink="http://www.w3.org/1999/xlink" x="0px" y="0px"
	 viewBox="0 0 260 90" style="enable-background:new 0 0 260 90;" xml:space="preserve">
<style type="text/css">
	.st0{fill:#007BC2;}
	.st1{font-family:'Montserrat-Bold';}
	.st2{font-size:32px;}
	.st3{fill:#5FBA46;}
	.st4{font-family:'OpenSans-Semibold';}
	.st5{font-size:20.5338px;}
	.st6{fill-rule:evenodd;clip-rule:evenodd;fill:#5FBA46;}
	.st7{fill-rule:evenodd;clip-rule:evenodd;fill:#007BC2;}
</style>
<g id="logo__item--business">
	<g transform="translate(64.17500305175781 50.536559643777764) scale(1 1) rotate(0 0 0)">
		<text transform="matrix(1 0 0 1 -1.520703e-05 0)" class="st0 st1 st2">B</text>
		<text transform="matrix(1 0 0 1 24.48 0)" class="st0 st1 st2">l</text>
		<text transform="matrix(1 0 0 1 34.1118 0)" class="st0 st1 st2">u</text>
		<text transform="matrix(1 0 0 1 56.0957 0)" class="st0 st1 st2">e</text>
		<text transform="matrix(1 0 0 1 76.2876 0)" class="st0 st1 st2">s</text>
		<text transform="matrix(1 0 0 1 93.2793 0)" class="st0 st1 st2">t</text>
		<text transform="matrix(1 0 0 1 107.1992 0)" class="st0 st1 st2">r</text>
		<text transform="matrix(1 0 0 1 120.7036 0)" class="st0 st1 st2">e</text>
		<text transform="matrix(1 0 0 1 140.4155 0)" class="st0 st1 st2">a</text>
		<text transform="matrix(1 0 0 1 160.1592 0)" class="st0 st1 st2">m</text>
	</g>
</g>
<g id="logo__item--tagline_1">
	<g transform="translate(67.57499694824219 72.53655964377776) scale(1.1407657395149124 1.1407657395149124) rotate(0 0 0)">
		<text transform="matrix(0.8766 0 0 0.8766 1.738415e-04 5.355502e-05)" class="st3 st4 st5">T</text>
		<text transform="matrix(0.8766 0 0 0.8766 10.1868 5.355502e-05)" class="st3 st4 st5">e</text>
		<text transform="matrix(0.8766 0 0 0.8766 20.558 5.355502e-05)" class="st3 st4 st5">c</text>
		<text transform="matrix(0.8766 0 0 0.8766 29.47 5.355502e-05)" class="st3 st4 st5">h</text>
		<text transform="matrix(0.8766 0 0 0.8766 40.8958 5.355502e-05)" class="st3 st4 st5">n</text>
		<text transform="matrix(0.8766 0 0 0.8766 52.3216 5.355502e-05)" class="st3 st4 st5">o</text>
		<text transform="matrix(0.8766 0 0 0.8766 63.3168 5.355502e-05)" class="st3 st4 st5">l</text>
		<text transform="matrix(0.8766 0 0 0.8766 68.335 5.355502e-05)" class="st3 st4 st5">o</text>
		<text transform="matrix(0.8766 0 0 0.8766 79.3303 5.355502e-05)" class="st3 st4 st5">g</text>
		<text transform="matrix(0.8766 0 0 0.8766 89.341 5.355502e-05)" class="st3 st4 st5">y</text>
		<text transform="matrix(0.8766 0 0 0.8766 98.9914 5.355502e-05)" class="st3 st4 st5"> </text>
		<text transform="matrix(0.8766 0 0 0.8766 103.6672 5.355502e-05)" class="st3 st4 st5">G</text>
		<text transform="matrix(0.8766 0 0 0.8766 116.7366 5.355502e-05)" class="st3 st4 st5">r</text>
		<text transform="matrix(0.8766 0 0 0.8766 124.4972 5.355502e-05)" class="st3 st4 st5">o</text>
		<text transform="matrix(0.8766 0 0 0.8766 135.4924 5.355502e-05)" class="st3 st4 st5">u</text>
		<text transform="matrix(0.8766 0 0 0.8766 146.9182 5.355502e-05)" class="st3 st4 st5">p</text>
	</g>
</g>
<g id="logo__item--logo_0">
	<g transform="translate(-21.13944223107569 -4.5) scale(1.0002628915306937 1.0002628915306937) rotate(0 0 0)">
		<g>
			<path class="st6" d="M51.7,67.4c-1.9,5.9-1.8,12.3,5.1,15.1c-4.5-2.9-3.2-10-0.7-15.8c2.1-5,5.4-9.1,8-13.9
				c3.9-7.2,6.4-15.3,0.5-20.4c3.3,5,0.3,12.2-3.5,18.6C57.8,56.4,53.7,61.3,51.7,67.4z"/>
			<path class="st6" d="M32.3,61c-1.9,6.8-1.5,14.3,6.6,17c-5.4-3.1-4.2-11.3-1.6-18.1c2.2-5.8,5.8-10.8,8.4-16.3
				c4.1-8.4,6.5-17.9-0.5-23.4c4.1,5.6,1,14-3,21.5C38.7,48.1,34.3,53.9,32.3,61z"/>
			<path class="st6" d="M25.1,59.9C23.7,65,24,70.6,30,72.7c-4-2.4-3.1-8.4-1.2-13.6c1.6-4.3,4.3-8.1,6.3-12.2
				c3.1-6.3,4.9-13.4-0.4-17.5c3.1,4.2,0.8,10.4-2.3,16.1C29.9,50.2,26.5,54.6,25.1,59.9z"/>
			<path class="st6" d="M60,68.3c-1.7,5-1.8,10.6,4.1,13c-3.9-2.6-2.6-8.6-0.4-13.6c1.9-4.2,4.8-7.8,7.1-11.8
				c3.4-6.1,5.7-13.1,0.7-17.5c2.8,4.3,0.1,10.5-3.3,16C65.4,59,61.8,63.1,60,68.3z"/>
			<path class="st7" d="M57,91.7c-18.5-11-7.1-31.3-0.1-43.8c9.7-17.4,11.7-37.1-12.2-39.5c15.1,5.7,12.5,22.6,4.1,37.7
				C41.6,58.9,31.8,79.1,57,91.7z"/>
		</g>
	</g>
</g>
</svg>
